<svg width="58" height="58" viewBox="0 0 58 58" fill="none" xmlns="http://www.w3.org/2000/svg">
<path d="M29 39.15C44.0075 39.15 56.1875 34.6188 56.1875 29C56.1875 23.3813 44.0075 18.85 29 18.85C13.9925 18.85 1.8125 23.3813 1.8125 29C1.8125 34.6188 13.9925 39.15 29 39.15Z" stroke="#2298E2" stroke-width="2" stroke-linecap="round" stroke-linejoin="round"/>
<path d="M20.01 34.075C27.5138 46.7625 37.6275 54.81 42.5938 52.0188C47.56 49.1913 45.4938 36.6488 37.99 23.925C30.4863 11.2375 20.3725 3.19 15.4063 5.98125C10.44 8.80875 12.5063 21.3513 20.01 34.075Z" stroke="#2298E2" stroke-width="2" stroke-linecap="round" stroke-linejoin="round"/>
<path d="M20.01 23.925C12.5063 36.6125 10.44 49.1913 15.4063 52.0188C20.3725 54.81 30.4863 46.7625 37.99 34.075C45.4938 21.3875 47.56 8.80875 42.5938 5.98125C37.6275 3.19 27.5138 11.2375 20.01 23.925Z" stroke="#2298E2" stroke-width="2" stroke-linecap="round" stroke-linejoin="round"/>
<path d="M30.8125 29C30.8125 29.4807 30.6215 29.9417 30.2816 30.2816C29.9417 30.6215 29.4807 30.8125 29 30.8125C28.5193 30.8125 28.0583 30.6215 27.7184 30.2816C27.3785 29.9417 27.1875 29.4807 27.1875 29C27.1875 28.5193 27.3785 28.0583 27.7184 27.7184C28.0583 27.3785 28.5193 27.1875 29 27.1875C29.4807 27.1875 29.9417 27.3785 30.2816 27.7184C30.6215 28.0583 30.8125 28.5193 30.8125 29Z" stroke="#2298E2" stroke-width="2" stroke-linecap="round" stroke-linejoin="round"/>
</svg>
