<svg width="827" height="375" viewBox="0 0 827 375" fill="none" xmlns="http://www.w3.org/2000/svg">
<rect x="151" width="675" height="375" rx="50" fill="#030075"/>
<g clip-path="url(#clip0_1045_352)">
<path d="M105.822 193.128C99.0166 206.431 94.9776 224.02 95.2922 239.422C95.4132 245.725 95.9522 255.073 101.264 259.239C106.802 263.593 113.154 262.779 117.387 257.308C121.134 252.464 122.055 244.621 122.255 238.483C122.813 220.741 125.965 206.51 139.257 194.758C139.789 194.291 143.108 187.112 142.554 185.943C133.749 167.259 113.01 179.042 105.822 193.121" fill="#625EFB"/>
<path d="M168.983 225.64C180.987 230.602 196.216 232.633 209.051 230.876C214.306 230.156 222.053 228.797 224.865 223.522C227.78 218.035 226.307 212.32 221.2 208.968C216.67 206.011 209.99 205.904 204.824 206.309C189.917 207.485 177.644 205.964 166.102 194.918C165.652 194.474 159.239 192.117 158.314 192.749C143.811 202.558 156.32 220.406 168.983 225.64ZM57.3811 232.505C45.335 237.359 30.0922 239.258 17.273 237.389C12.0203 236.624 4.30319 235.197 1.52681 229.897C-1.34054 224.385 0.17947 218.683 5.31563 215.376C9.87394 212.458 16.5512 212.41 21.7134 212.86C36.6099 214.169 48.8956 212.752 60.5299 201.806C60.9843 201.37 67.4345 199.065 68.3401 199.705C82.7396 209.641 70.0929 227.379 57.3811 232.505ZM114.362 223.889C115.782 238.765 121.844 255.769 130.402 268.591C133.893 273.831 139.356 281.426 146.094 282.077C153.118 282.762 158.01 278.661 158.648 271.772C159.191 265.67 155.751 258.568 152.61 253.284C143.529 238.02 138.527 224.355 143.423 207.293C143.609 206.611 142.551 198.777 141.451 198.09C123.989 187.082 112.847 208.178 114.362 223.903M109.22 223.866C107.67 238.73 101.464 255.68 92.7906 268.427C89.2544 273.636 83.7074 281.183 76.9819 281.776C69.9522 282.399 65.0783 278.257 64.518 271.362C64.0286 265.255 67.5269 258.183 70.7169 252.927C79.9308 237.743 85.0518 224.122 80.3085 207.018C80.1135 206.335 81.254 198.51 82.3633 197.833C99.9108 186.977 110.879 208.169 109.219 223.88" fill="#7F8FF1"/>
<path d="M89.5243 197.087C87.9679 211.95 81.7614 228.9 73.0954 241.644C69.5592 246.856 64.0051 254.403 57.2796 254.996C50.2641 255.616 45.3901 251.477 44.8298 244.582C44.3263 238.475 47.8317 231.404 51.0146 226.144C60.2355 210.963 65.3495 197.342 60.6027 180.235C60.4254 179.552 61.5482 171.727 62.6645 171.05C80.2262 160.197 91.1798 181.386 89.5242 197.097M124.751 192.21C126.171 207.09 132.229 224.09 140.791 236.913C144.282 242.156 149.763 249.751 156.483 250.399C163.507 251.083 168.417 246.987 169.037 240.093C169.58 233.991 166.143 226.893 163.002 221.605C153.921 206.345 148.919 192.68 153.811 175.614C154.012 174.933 152.94 167.099 151.84 166.412C134.374 155.403 123.236 176.499 124.751 192.221" fill="#625EFB"/>
<path d="M13.8339 163.283C14.0597 111.459 56.2515 69.6468 108.076 69.8725C159.901 70.0983 201.712 112.276 201.487 164.101C201.261 215.925 159.244 220.896 107.419 220.67C55.5946 220.444 13.6081 215.111 13.8339 163.283Z" fill="#7F8FF1"/>
<path d="M64.5145 271.348C64.7163 273.71 65.4358 275.696 66.5492 277.337C67.4367 271.587 70.8425 265.469 73.7219 261.724C84.2439 248.094 88.615 232.179 88.9911 215.627C68.3813 214.597 50.1543 209.414 41.7198 195.808C22.6358 165.026 37.888 119.569 63.0085 96.1516C80.0229 80.2949 99.1328 70.2301 119.565 66.6677C116.039 66.26 112.498 65.9866 108.858 65.9707C57.0331 65.7449 14.8412 107.557 14.6154 159.381C14.4892 188.354 27.5578 202.766 48.1515 209.911C40.0812 213.315 31.4443 213.687 21.6817 212.825C16.5195 212.378 9.83876 212.423 5.28399 215.341C0.151358 218.648 -1.3722 224.353 1.49517 229.862C4.27156 235.159 11.9921 236.588 17.2414 237.354C30.0606 239.226 45.3033 237.324 57.3495 232.47C64.5871 229.547 71.7966 222.537 74.0059 215.202C76.5638 215.485 79.1536 215.726 81.818 215.9C82.9414 229.036 78.2435 240.465 70.6923 252.895C67.5093 258.162 64.011 265.237 64.4969 271.34M160.239 208.458C152.177 210.06 142.516 211.757 132.295 213.151C131.697 225.445 136.355 264.538 158.028 274.675C158.331 273.736 158.533 272.768 158.631 271.786C159.173 265.684 155.733 258.582 152.593 253.298C145.031 240.604 140.401 228.969 141.852 215.603C146.276 215.189 150.68 214.587 155.052 213.798C158.331 218.962 163.627 223.436 168.976 225.64C180.98 230.602 196.209 232.633 209.044 230.876C214.299 230.157 222.046 228.798 224.858 223.522C225.831 221.663 226.143 219.816 226.169 218.014C188.975 231.453 168.036 215.809 160.239 208.458Z" fill="#625EFB"/>
<path d="M92.4783 141.322C92.3885 161.936 81.1711 178.592 67.3967 178.532C53.6294 178.472 42.5504 161.719 42.6402 141.105C42.7301 120.481 53.9651 103.839 67.7218 103.899C81.4892 103.959 92.5682 120.698 92.4783 141.322ZM176.804 141.69C176.714 162.303 165.496 178.96 151.722 178.899C137.955 178.84 126.876 162.086 126.966 141.472C127.055 120.848 138.29 104.206 152.047 104.266C165.814 104.326 176.893 121.065 176.804 141.69Z" fill="white"/>
<path d="M67.4815 160.75C76.3892 160.789 83.6484 152.074 83.6954 141.284C83.7424 130.495 76.5594 121.717 67.6518 121.678C58.7441 121.639 51.4849 130.354 51.4379 141.144C51.3909 151.933 58.5739 160.712 67.4815 160.75Z" fill="#2F2D97"/>
<path d="M167.989 141.652C167.942 152.45 160.697 161.156 151.789 161.118C142.882 161.079 135.698 152.31 135.746 141.511C135.793 130.713 143.056 121.992 151.959 122.031C160.863 122.07 168.036 130.853 167.989 141.652Z" fill="#2F2D97"/>
<path d="M72.3316 132.179C72.3063 137.979 70.1791 142.681 67.56 142.67C64.955 142.659 62.8583 137.938 62.8835 132.137C62.9088 126.337 65.05 121.652 67.6515 121.664C70.2707 121.675 72.3568 126.378 72.3316 132.179ZM156.646 132.546C156.621 138.346 154.494 143.049 151.875 143.037C149.27 143.026 147.169 138.305 147.195 132.505C147.22 126.704 149.361 122.02 151.966 122.031C154.585 122.042 156.672 126.746 156.646 132.546Z" fill="white"/>
</g>
<path d="M392.509 37.1201L404.751 11.4461C404.957 11.0173 405.337 10.6752 405.814 10.4895C406.291 10.3038 406.829 10.2885 407.318 10.4469C407.807 10.6052 408.211 10.9252 408.446 11.3416C408.682 11.7579 408.731 12.2392 408.585 12.6873L408.503 12.889L396.261 38.563C396.056 38.9918 395.676 39.334 395.198 39.5197C394.721 39.7053 394.183 39.7206 393.694 39.5622C393.205 39.4039 392.801 39.0839 392.566 38.6675C392.331 38.2512 392.281 37.7699 392.427 37.3218L392.509 37.1201ZM380.682 23.7038L388.848 16.3705C389.216 16.0417 389.709 15.8508 390.227 15.8366C390.746 15.8223 391.251 15.9859 391.64 16.2939C392.029 16.602 392.273 17.0315 392.322 17.4952C392.371 17.9589 392.222 18.422 391.905 18.7905L391.735 18.9628L385.012 25L391.735 31.0371C392.105 31.3663 392.321 31.81 392.339 32.2775C392.356 32.7449 392.174 33.2008 391.83 33.5517C391.486 33.9026 391.005 34.1221 390.486 34.1652C389.968 34.2083 389.45 34.0717 389.04 33.7835L388.848 33.6295L380.682 26.2961C380.33 25.9805 380.119 25.5604 380.088 25.1149C380.056 24.6693 380.207 24.2289 380.512 23.8761L380.682 23.7038ZM409.265 16.3686C409.616 16.053 410.084 15.8634 410.58 15.8353C411.077 15.8073 411.567 15.9429 411.96 16.2165L412.15 16.3686L420.318 23.7038C420.67 24.0195 420.881 24.4395 420.912 24.8851C420.944 25.3306 420.793 25.7711 420.488 26.1238L420.318 26.298L412.15 33.6221C411.782 33.9509 411.289 34.1418 410.771 34.1561C410.252 34.1703 409.747 34.0067 409.358 33.6987C408.969 33.3906 408.725 32.9611 408.676 32.4974C408.627 32.0337 408.776 31.5706 409.093 31.2021L409.265 31.028L415.986 25L409.263 18.961C408.88 18.6172 408.665 18.1509 408.665 17.6648C408.665 17.1787 408.882 16.7124 409.265 16.3686Z" fill="#7F8FF1"/>
<path d="M208.825 36.388C208.825 36.796 207.613 37 205.189 37C202.765 37 201.553 36.796 201.553 36.388V28.108H196.513V36.388C196.513 36.796 195.301 37 192.877 37C190.453 37 189.241 36.796 189.241 36.388V12.52C189.241 12.016 190.453 11.764 192.877 11.764C195.301 11.764 196.513 12.016 196.513 12.52V20.98H201.553V12.592C201.553 12.256 202.153 12.016 203.353 11.872C203.977 11.824 204.589 11.8 205.189 11.8L207.025 11.872C208.225 12.016 208.825 12.256 208.825 12.592V36.388ZM223.245 36.424C223.245 36.904 222.057 37.144 219.681 37.144C217.305 37.144 216.117 36.904 216.117 36.424V18.352H211.797C211.389 18.352 211.101 17.8 210.933 16.696C210.861 16.168 210.825 15.628 210.825 15.076C210.825 14.524 210.861 13.984 210.933 13.456C211.101 12.352 211.389 11.8 211.797 11.8H227.457C227.865 11.8 228.153 12.352 228.321 13.456C228.393 13.984 228.429 14.524 228.429 15.076C228.429 15.628 228.393 16.168 228.321 16.696C228.153 17.8 227.865 18.352 227.457 18.352H223.245V36.424ZM255.68 37.036C253.544 37.036 252.476 36.796 252.476 36.316L251.72 21.88L247.328 36.496C247.232 36.784 246.416 36.928 244.88 36.928C243.344 36.928 242.552 36.796 242.504 36.532L237.968 21.736L237.464 36.1C237.44 36.46 236.984 36.712 236.096 36.856C235.208 36.976 234.464 37.036 233.864 37.036C233.288 37.036 232.724 37 232.172 36.928C231.02 36.76 230.456 36.46 230.48 36.028L231.308 12.628C231.308 12.052 232.772 11.764 235.7 11.764C236.564 11.764 237.62 11.836 238.868 11.98C240.116 12.1 240.812 12.352 240.956 12.736L244.988 24.076L248.516 12.7C248.732 12.076 250.388 11.764 253.484 11.764C254.372 11.764 255.428 11.836 256.652 11.98C257.9 12.1 258.524 12.328 258.524 12.664L259.568 36.28C259.568 36.544 259.1 36.736 258.164 36.856C257.228 36.976 256.4 37.036 255.68 37.036ZM262.78 34.876V12.484C262.78 11.98 263.992 11.728 266.416 11.728C268.864 11.728 270.088 11.98 270.088 12.484V30.124H275.632C276.064 30.124 276.364 30.688 276.532 31.816C276.604 32.368 276.64 32.932 276.64 33.508C276.64 34.084 276.604 34.672 276.532 35.272C276.34 36.424 276.028 37 275.596 37H264.508C263.98 37 263.56 36.784 263.248 36.352C262.936 35.92 262.78 35.428 262.78 34.876ZM292.356 11.8C292.812 11.8 293.04 12.796 293.04 14.788C293.04 15.412 292.98 16.156 292.86 17.02C292.764 17.86 292.572 18.28 292.284 18.28H285.264L285.228 20.908H286.416C288.984 20.908 290.892 21.652 292.14 23.14C293.412 24.628 294.048 26.596 294.048 29.044C294.048 31.492 293.184 33.496 291.456 35.056C289.728 36.592 287.508 37.36 284.796 37.36C282.084 37.36 280.104 36.976 278.856 36.208C278.664 35.896 278.568 35.416 278.568 34.768C278.568 34.096 278.664 33.16 278.856 31.96C279.048 30.736 279.312 30.124 279.648 30.124C279.672 30.124 279.744 30.172 279.864 30.268C281.568 30.964 282.864 31.312 283.752 31.312C284.664 31.312 285.408 31.072 285.984 30.592C286.584 30.088 286.884 29.452 286.884 28.684C286.884 26.764 285.852 25.804 283.788 25.804L280.692 25.84C280.452 25.888 280.212 25.792 279.972 25.552C279.732 25.288 279.612 24.952 279.612 24.544V13.276C279.612 12.292 279.972 11.8 280.692 11.8H292.356ZM303.387 37.108C303.387 37.276 302.247 37.36 299.967 37.36C297.711 37.36 296.583 37.288 296.583 37.144V30.664C296.583 30.448 297.711 30.34 299.967 30.34C302.247 30.34 303.387 30.4 303.387 30.52V37.108ZM311.722 36.748C311.722 36.964 310.714 37.072 308.698 37.072C306.706 37.072 305.71 36.904 305.71 36.568V11.908C305.71 11.74 306.082 11.62 306.826 11.548C307.57 11.476 308.194 11.44 308.698 11.44C310.714 11.44 311.722 11.656 311.722 12.088V19.288C313.066 18.88 314.086 18.676 314.782 18.676C316.606 18.676 318.046 19.168 319.102 20.152C320.158 21.112 320.686 22.912 320.686 25.552V36.712C320.686 36.928 319.75 37.036 317.878 37.036C315.766 36.964 314.71 36.844 314.71 36.676V26.092C314.71 24.916 314.326 24.328 313.558 24.328C313.03 24.328 312.418 24.58 311.722 25.084V36.748ZM332.025 36.784C332.025 37.072 331.017 37.216 329.001 37.216C326.601 37.12 325.401 36.964 325.401 36.748V24.004H323.565C323.085 24.004 322.845 23.176 322.845 21.52C322.845 21.088 322.881 20.56 322.953 19.936C323.049 19.312 323.229 19 323.493 19H325.401V15.832C325.401 15.352 326.409 15.112 328.425 15.112C330.465 15.112 331.485 15.304 331.485 15.688V17.992L331.521 19H334.581C334.989 19 335.193 19.84 335.193 21.52C335.193 23.2 334.989 24.04 334.581 24.04H332.025V36.784ZM353.307 36.82C353.307 36.988 352.275 37.072 350.211 37.072C348.171 37.072 347.151 36.964 347.151 36.748V26.272C347.151 25.072 346.755 24.472 345.963 24.472C345.555 24.472 345.015 24.736 344.343 25.264V36.784C344.343 37.024 343.311 37.144 341.247 37.144C339.207 37.144 338.187 37.012 338.187 36.748V24.976H337.287C336.495 24.976 336.099 24.148 336.099 22.492C336.099 21.748 336.243 20.992 336.531 20.224C336.915 19.168 337.539 18.64 338.403 18.64C339.267 18.64 340.095 18.868 340.887 19.324C341.703 19.78 342.195 20.212 342.363 20.62C343.851 19.3 345.495 18.64 347.295 18.64C349.119 18.64 350.583 19.204 351.687 20.332C352.983 19.204 354.543 18.64 356.367 18.64C360.327 18.64 362.307 21.052 362.307 25.876V36.82C362.307 36.988 361.275 37.072 359.211 37.072C357.171 37.072 356.151 36.964 356.151 36.748V26.272C356.151 25.072 355.755 24.472 354.963 24.472C354.531 24.472 353.979 24.736 353.307 25.264V36.82ZM371.922 36.712C371.922 36.928 370.698 37.036 368.25 37.036C366.33 37.012 365.37 36.916 365.37 36.748V12.232C365.37 11.872 366.534 11.692 368.862 11.692C370.902 11.764 371.922 11.884 371.922 12.052V36.712Z" fill="#7F8FF1"/>
<rect x="151" y="49.4839" width="676" height="14.8966" fill="#B6CFFF"/>
<defs>
<clipPath id="clip0_1045_352">
<rect width="226.217" height="226.217" fill="white" transform="translate(0.985535 58) rotate(0.249611)"/>
</clipPath>
</defs>
</svg>
