<svg width="675" height="69" viewBox="0 0 675 69" fill="none" xmlns="http://www.w3.org/2000/svg">
<path d="M0 50C0 22.3858 22.3858 0 50 0H625C652.614 0 675 22.3858 675 50V69H0V50Z" fill="#030075"/>
<path d="M239.509 43.1201L251.751 17.4461C251.957 17.0173 252.337 16.6752 252.814 16.4895C253.291 16.3038 253.829 16.2885 254.318 16.4469C254.807 16.6052 255.211 16.9252 255.446 17.3416C255.682 17.7579 255.731 18.2392 255.585 18.6873L255.503 18.889L243.261 44.563C243.056 44.9918 242.676 45.334 242.198 45.5197C241.721 45.7053 241.183 45.7206 240.694 45.5622C240.205 45.4039 239.801 45.0839 239.566 44.6675C239.331 44.2512 239.281 43.7699 239.427 43.3218L239.509 43.1201ZM227.682 29.7038L235.848 22.3705C236.216 22.0417 236.709 21.8508 237.227 21.8366C237.746 21.8223 238.251 21.9859 238.64 22.2939C239.029 22.602 239.273 23.0315 239.322 23.4952C239.371 23.9589 239.222 24.422 238.905 24.7905L238.735 24.9628L232.012 31L238.735 37.0371C239.105 37.3663 239.321 37.81 239.339 38.2775C239.356 38.7449 239.174 39.2008 238.83 39.5517C238.486 39.9026 238.005 40.1221 237.486 40.1652C236.968 40.2083 236.45 40.0717 236.04 39.7835L235.848 39.6295L227.682 32.2961C227.33 31.9805 227.119 31.5604 227.088 31.1149C227.056 30.6693 227.207 30.2289 227.512 29.8761L227.682 29.7038ZM256.265 22.3686C256.616 22.053 257.084 21.8634 257.58 21.8353C258.077 21.8073 258.567 21.9429 258.96 22.2165L259.15 22.3686L267.318 29.7038C267.67 30.0195 267.881 30.4395 267.912 30.8851C267.944 31.3306 267.793 31.7711 267.488 32.1238L267.318 32.298L259.15 39.6221C258.782 39.9509 258.289 40.1418 257.771 40.1561C257.252 40.1703 256.747 40.0067 256.358 39.6987C255.969 39.3906 255.725 38.9611 255.676 38.4974C255.627 38.0337 255.776 37.5706 256.093 37.2021L256.265 37.028L262.986 31L256.263 24.961C255.88 24.6172 255.665 24.1509 255.665 23.6648C255.665 23.1787 255.882 22.7124 256.265 22.3686Z" fill="#7F8FF1"/>
<path d="M55.8254 42.388C55.8254 42.796 54.6134 43 52.1894 43C49.7654 43 48.5534 42.796 48.5534 42.388V34.108H43.5134V42.388C43.5134 42.796 42.3014 43 39.8774 43C37.4534 43 36.2414 42.796 36.2414 42.388V18.52C36.2414 18.016 37.4534 17.764 39.8774 17.764C42.3014 17.764 43.5134 18.016 43.5134 18.52V26.98H48.5534V18.592C48.5534 18.256 49.1534 18.016 50.3534 17.872C50.9774 17.824 51.5894 17.8 52.1894 17.8L54.0254 17.872C55.2254 18.016 55.8254 18.256 55.8254 18.592V42.388ZM70.2454 42.424C70.2454 42.904 69.0574 43.144 66.6814 43.144C64.3054 43.144 63.1174 42.904 63.1174 42.424V24.352H58.7974C58.3894 24.352 58.1014 23.8 57.9334 22.696C57.8614 22.168 57.8254 21.628 57.8254 21.076C57.8254 20.524 57.8614 19.984 57.9334 19.456C58.1014 18.352 58.3894 17.8 58.7974 17.8H74.4574C74.8654 17.8 75.1534 18.352 75.3214 19.456C75.3934 19.984 75.4294 20.524 75.4294 21.076C75.4294 21.628 75.3934 22.168 75.3214 22.696C75.1534 23.8 74.8654 24.352 74.4574 24.352H70.2454V42.424ZM102.68 43.036C100.544 43.036 99.4757 42.796 99.4757 42.316L98.7197 27.88L94.3277 42.496C94.2317 42.784 93.4157 42.928 91.8797 42.928C90.3437 42.928 89.5517 42.796 89.5037 42.532L84.9677 27.736L84.4637 42.1C84.4397 42.46 83.9837 42.712 83.0957 42.856C82.2077 42.976 81.4637 43.036 80.8637 43.036C80.2877 43.036 79.7237 43 79.1717 42.928C78.0197 42.76 77.4557 42.46 77.4797 42.028L78.3077 18.628C78.3077 18.052 79.7717 17.764 82.6997 17.764C83.5637 17.764 84.6197 17.836 85.8677 17.98C87.1157 18.1 87.8117 18.352 87.9557 18.736L91.9877 30.076L95.5157 18.7C95.7317 18.076 97.3877 17.764 100.484 17.764C101.372 17.764 102.428 17.836 103.652 17.98C104.9 18.1 105.524 18.328 105.524 18.664L106.568 42.28C106.568 42.544 106.1 42.736 105.164 42.856C104.228 42.976 103.4 43.036 102.68 43.036ZM109.78 40.876V18.484C109.78 17.98 110.992 17.728 113.416 17.728C115.864 17.728 117.088 17.98 117.088 18.484V36.124H122.632C123.064 36.124 123.364 36.688 123.532 37.816C123.604 38.368 123.64 38.932 123.64 39.508C123.64 40.084 123.604 40.672 123.532 41.272C123.34 42.424 123.028 43 122.596 43H111.508C110.98 43 110.56 42.784 110.248 42.352C109.936 41.92 109.78 41.428 109.78 40.876ZM139.356 17.8C139.812 17.8 140.04 18.796 140.04 20.788C140.04 21.412 139.98 22.156 139.86 23.02C139.764 23.86 139.572 24.28 139.284 24.28H132.264L132.228 26.908H133.416C135.984 26.908 137.892 27.652 139.14 29.14C140.412 30.628 141.048 32.596 141.048 35.044C141.048 37.492 140.184 39.496 138.456 41.056C136.728 42.592 134.508 43.36 131.796 43.36C129.084 43.36 127.104 42.976 125.856 42.208C125.664 41.896 125.568 41.416 125.568 40.768C125.568 40.096 125.664 39.16 125.856 37.96C126.048 36.736 126.312 36.124 126.648 36.124C126.672 36.124 126.744 36.172 126.864 36.268C128.568 36.964 129.864 37.312 130.752 37.312C131.664 37.312 132.408 37.072 132.984 36.592C133.584 36.088 133.884 35.452 133.884 34.684C133.884 32.764 132.852 31.804 130.788 31.804L127.692 31.84C127.452 31.888 127.212 31.792 126.972 31.552C126.732 31.288 126.612 30.952 126.612 30.544V19.276C126.612 18.292 126.972 17.8 127.692 17.8H139.356ZM150.387 43.108C150.387 43.276 149.247 43.36 146.967 43.36C144.711 43.36 143.583 43.288 143.583 43.144V36.664C143.583 36.448 144.711 36.34 146.967 36.34C149.247 36.34 150.387 36.4 150.387 36.52V43.108ZM158.722 42.748C158.722 42.964 157.714 43.072 155.698 43.072C153.706 43.072 152.71 42.904 152.71 42.568V17.908C152.71 17.74 153.082 17.62 153.826 17.548C154.57 17.476 155.194 17.44 155.698 17.44C157.714 17.44 158.722 17.656 158.722 18.088V25.288C160.066 24.88 161.086 24.676 161.782 24.676C163.606 24.676 165.046 25.168 166.102 26.152C167.158 27.112 167.686 28.912 167.686 31.552V42.712C167.686 42.928 166.75 43.036 164.878 43.036C162.766 42.964 161.71 42.844 161.71 42.676V32.092C161.71 30.916 161.326 30.328 160.558 30.328C160.03 30.328 159.418 30.58 158.722 31.084V42.748ZM179.025 42.784C179.025 43.072 178.017 43.216 176.001 43.216C173.601 43.12 172.401 42.964 172.401 42.748V30.004H170.565C170.085 30.004 169.845 29.176 169.845 27.52C169.845 27.088 169.881 26.56 169.953 25.936C170.049 25.312 170.229 25 170.493 25H172.401V21.832C172.401 21.352 173.409 21.112 175.425 21.112C177.465 21.112 178.485 21.304 178.485 21.688V23.992L178.521 25H181.581C181.989 25 182.193 25.84 182.193 27.52C182.193 29.2 181.989 30.04 181.581 30.04H179.025V42.784ZM200.307 42.82C200.307 42.988 199.275 43.072 197.211 43.072C195.171 43.072 194.151 42.964 194.151 42.748V32.272C194.151 31.072 193.755 30.472 192.963 30.472C192.555 30.472 192.015 30.736 191.343 31.264V42.784C191.343 43.024 190.311 43.144 188.247 43.144C186.207 43.144 185.187 43.012 185.187 42.748V30.976H184.287C183.495 30.976 183.099 30.148 183.099 28.492C183.099 27.748 183.243 26.992 183.531 26.224C183.915 25.168 184.539 24.64 185.403 24.64C186.267 24.64 187.095 24.868 187.887 25.324C188.703 25.78 189.195 26.212 189.363 26.62C190.851 25.3 192.495 24.64 194.295 24.64C196.119 24.64 197.583 25.204 198.687 26.332C199.983 25.204 201.543 24.64 203.367 24.64C207.327 24.64 209.307 27.052 209.307 31.876V42.82C209.307 42.988 208.275 43.072 206.211 43.072C204.171 43.072 203.151 42.964 203.151 42.748V32.272C203.151 31.072 202.755 30.472 201.963 30.472C201.531 30.472 200.979 30.736 200.307 31.264V42.82ZM218.922 42.712C218.922 42.928 217.698 43.036 215.25 43.036C213.33 43.012 212.37 42.916 212.37 42.748V18.232C212.37 17.872 213.534 17.692 215.862 17.692C217.902 17.764 218.922 17.884 218.922 18.052V42.712Z" fill="#7F8FF1"/>
<rect y="54" width="675" height="15" fill="#B6CFFF"/>
</svg>
