<svg width="56" height="56" viewBox="0 0 56 56" fill="none" xmlns="http://www.w3.org/2000/svg">
<path d="M27.7629 0.0158119C13.5809 0.0158119 14.4664 6.19009 14.4664 6.19009L14.4821 12.5868H28.0158V14.5073H9.1068C9.1068 14.5073 0.0317383 13.474 0.0317383 27.8397C0.0317383 42.2058 7.95268 41.6963 7.95268 41.6963H12.6799V35.0299C12.6799 35.0299 12.425 27.0779 20.4744 27.0779H33.8973C33.8973 27.0779 41.4387 27.2002 41.4387 19.7608V7.46008C41.4387 7.46008 42.5841 0.0158119 27.7629 0.0158119ZM20.3005 4.31749C20.6203 4.3172 20.937 4.38023 21.2325 4.50296C21.528 4.62569 21.7965 4.80572 22.0227 5.03275C22.2488 5.25977 22.4281 5.52934 22.5504 5.82602C22.6727 6.12269 22.7354 6.44066 22.7351 6.76173C22.7354 7.08279 22.6727 7.40076 22.5504 7.69744C22.4281 7.99411 22.2488 8.26368 22.0227 8.49071C21.7965 8.71773 21.528 8.89776 21.2325 9.02049C20.937 9.14323 20.6203 9.20625 20.3005 9.20596C19.9806 9.20625 19.6639 9.14323 19.3684 9.02049C19.0729 8.89776 18.8044 8.71773 18.5782 8.49071C18.3521 8.26368 18.1728 7.99411 18.0505 7.69744C17.9283 7.40076 17.8655 7.08279 17.8658 6.76173C17.8655 6.44066 17.9283 6.12269 18.0505 5.82602C18.1728 5.52934 18.3521 5.25977 18.5782 5.03275C18.8044 4.80572 19.0729 4.62569 19.3684 4.50296C19.6639 4.38023 19.9806 4.3172 20.3005 4.31749Z" fill="url(#paint0_linear_17_23)"/>
<path d="M28.1655 55.8081C42.3475 55.8081 41.462 49.6338 41.462 49.6338L41.4463 43.2373H27.9124V41.3168H46.8214C46.8214 41.3168 55.8965 42.3501 55.8965 27.984C55.8965 13.6181 47.9755 14.1276 47.9755 14.1276H43.2484V20.7938C43.2484 20.7938 43.5032 28.7458 35.4539 28.7458H22.0309C22.0309 28.7458 14.4895 28.6235 14.4895 36.0631V48.364C14.4895 48.364 13.3444 55.8081 28.1653 55.8081M35.6278 51.5068C35.308 51.5071 34.9912 51.4441 34.6957 51.3214C34.4002 51.1986 34.1317 51.0186 33.9055 50.7916C33.6794 50.5645 33.5001 50.295 33.3778 49.9983C33.2556 49.7016 33.1928 49.3837 33.1931 49.0626C33.1928 48.7415 33.2555 48.4235 33.3778 48.1268C33.5 47.8301 33.6793 47.5605 33.9055 47.3335C34.1316 47.1064 34.4001 46.9264 34.6957 46.8036C34.9912 46.6809 35.3079 46.6178 35.6278 46.6181C35.9476 46.6178 36.2643 46.6809 36.5598 46.8036C36.8553 46.9263 37.1238 47.1064 37.35 47.3334C37.5761 47.5604 37.7555 47.83 37.8777 48.1267C38 48.4233 38.0627 48.7413 38.0624 49.0624C38.0627 49.3834 38 49.7014 37.8777 49.9981C37.7555 50.2948 37.5761 50.5643 37.35 50.7913C37.1238 51.0184 36.8553 51.1984 36.5598 51.3211C36.2643 51.4439 35.9476 51.5071 35.6278 51.5068Z" fill="url(#paint1_linear_17_23)"/>
<defs>
<linearGradient id="paint0_linear_17_23" x1="536.891" y1="501.834" x2="3316.11" y2="3242.58" gradientUnits="userSpaceOnUse">
<stop stop-color="#387EB8"/>
<stop offset="1" stop-color="#366994"/>
</linearGradient>
<linearGradient id="paint1_linear_17_23" x1="806.894" y1="871.914" x2="3790.91" y2="3681.78" gradientUnits="userSpaceOnUse">
<stop stop-color="#FFE052"/>
<stop offset="1" stop-color="#FFC331"/>
</linearGradient>
</defs>
</svg>
