<svg width="61" height="61" viewBox="0 0 61 61" fill="none" xmlns="http://www.w3.org/2000/svg">
<path d="M22.6926 46.7603C22.6926 46.7603 20.4208 48.0823 24.3114 48.5284C29.0256 49.0669 31.4346 48.9897 36.6282 48.008C36.6282 48.008 37.9964 48.8634 39.9036 49.6049C28.2569 54.5945 13.5459 49.3156 22.6926 46.7603ZM21.2686 40.2481C21.2686 40.2481 18.7199 42.1348 22.6139 42.538C27.6498 43.0579 31.6257 43.1003 38.5092 41.7755C38.5092 41.7755 39.459 42.7405 40.9549 43.2676C26.8763 47.3851 11.1955 43.5917 21.2686 40.2481Z" fill="#0074BD"/>
<path d="M33.265 29.1995C36.1363 32.5044 32.5121 35.4758 32.5121 35.4758C32.5121 35.4758 39.7982 31.7152 36.4527 27.0039C33.327 22.6124 30.9308 20.4312 43.9038 12.9072C43.9038 12.9077 23.5398 17.9921 33.265 29.1995Z" fill="#EA2D2E"/>
<path d="M48.668 51.5779C48.668 51.5779 50.3498 52.9647 46.8151 54.0365C40.0946 56.0723 18.838 56.6862 12.9344 54.118C10.8132 53.1944 14.7925 51.9139 16.0444 51.6436C17.3497 51.361 18.0951 51.4125 18.0951 51.4125C15.7346 49.7507 2.83886 54.677 11.5457 56.09C35.2885 59.9387 54.8256 54.3567 48.668 51.5779ZM23.7862 33.4995C23.7862 33.4995 12.9749 36.0677 19.9579 37.0013C22.9069 37.3959 28.7829 37.3053 34.2601 36.8459C38.735 36.4699 43.2256 35.6669 43.2256 35.6669C43.2256 35.6669 41.6492 36.3431 40.5073 37.1218C29.5264 40.0103 8.31837 38.6649 14.4246 35.7122C19.5867 33.2155 23.7862 33.4995 23.7862 33.4995ZM43.1808 44.3399C54.3424 38.5415 49.1812 32.9691 45.5789 33.7197C44.6982 33.9031 44.3031 34.0628 44.3031 34.0628C44.3031 34.0628 44.631 33.5486 45.2563 33.3274C52.3823 30.8231 57.8618 40.7156 42.9578 44.6339C42.9578 44.6329 43.1289 44.4781 43.1808 44.3399Z" fill="#0074BD"/>
<path d="M36.4528 0.756302C36.4528 0.756302 42.6329 6.94017 30.5897 16.4462C20.9317 24.074 28.3875 28.4222 30.5863 33.3923C24.9481 28.3059 20.8125 23.8276 23.5866 19.6601C27.6603 13.5439 38.9457 10.5773 36.4528 0.756302Z" fill="#EA2D2E"/>
<path d="M24.8833 60.0569C35.5945 60.7417 52.0473 59.6756 52.4367 54.6069C52.4367 54.6069 51.688 56.5284 43.5836 58.0529C34.4403 59.7743 23.161 59.5737 16.4734 58.4695C16.4734 58.4699 17.8435 59.6042 24.8833 60.0569Z" fill="#0074BD"/>
</svg>
