<svg width="89" height="47" viewBox="0 0 89 47" fill="none" xmlns="http://www.w3.org/2000/svg">
<path d="M44.5 46.8607C69.0767 46.8607 89 36.3706 89 23.4304C89 10.4901 69.0767 0 44.5 0C19.9233 0 0 10.4901 0 23.4304C0 36.3706 19.9233 46.8607 44.5 46.8607Z" fill="url(#paint0_radial_17_37)"/>
<path d="M44.5 45.12C68.1166 45.12 87.2617 35.4092 87.2617 23.4304C87.2617 11.4515 68.1166 1.74074 44.5 1.74074C20.8834 1.74074 1.73828 11.4515 1.73828 23.4304C1.73828 35.4092 20.8834 45.12 44.5 45.12Z" fill="#6181B6"/>
<path d="M53.1567 30.463L55.2774 19.5311C55.7641 17.0593 55.347 15.2141 54.0954 14.0652C52.8786 12.9511 50.7927 12.3941 47.7333 12.3941H44.0481L45.0911 6.96297C45.1259 6.75408 45.0911 6.54519 44.952 6.37111C44.813 6.19704 44.6392 6.12741 44.4306 6.12741H39.3548C39.0071 6.12741 38.729 6.37111 38.6595 6.68445L36.3997 18.2778C36.1911 16.9548 35.7044 15.8407 34.87 14.9356C33.3751 13.2296 31.0458 12.3593 27.8821 12.3593H18.113C17.7653 12.3593 17.4872 12.603 17.4177 12.9163L12.8634 36.4511C12.8286 36.66 12.8634 36.8689 13.0024 37.043C13.1415 37.217 13.3153 37.2867 13.5239 37.2867H18.6345C18.9821 37.2867 19.2602 37.043 19.3298 36.7296L20.4423 31.0548H24.2317C26.2134 31.0548 27.9169 30.8459 29.2032 30.4282C30.5591 29.9756 31.7759 29.2444 32.8536 28.2348C33.7227 27.4341 34.4528 26.5289 35.0091 25.5541L34.1052 30.2541C34.0704 30.463 34.1052 30.6719 34.2442 30.8459C34.3833 31.02 34.5571 31.0896 34.7657 31.0896H39.8415C40.1891 31.0896 40.4673 30.8459 40.5368 30.5326L43.0399 17.6511H46.5165C48.0114 17.6511 48.4286 17.9296 48.5677 18.0689C48.672 18.1733 48.8806 18.5911 48.6372 19.8793L46.6208 30.2889C46.586 30.4978 46.6208 30.7067 46.7599 30.8807C46.8989 31.0548 47.0727 31.1245 47.2813 31.1245H52.4962C52.8091 31.02 53.0872 30.7763 53.1567 30.463ZM29.6552 21.4111C29.3423 23.0474 28.7513 24.2311 27.8821 24.8926C27.013 25.5541 25.5876 25.9022 23.7102 25.9022H21.4505L23.0845 17.477H26.0048C28.1602 17.477 29.0294 17.9296 29.377 18.3126C29.829 18.8696 29.9333 19.9489 29.6552 21.4111ZM74.8505 14.9356C73.3556 13.2296 71.0263 12.3593 67.8626 12.3593H58.0239C57.6763 12.3593 57.3981 12.603 57.3286 12.9163L52.7743 36.4163C52.7395 36.6252 52.7743 36.8341 52.9134 37.0082C53.0524 37.1822 53.2263 37.2519 53.4349 37.2519H58.5454C58.8931 37.2519 59.1712 37.0082 59.2407 36.6948L60.3532 31.02H64.1427C66.1243 31.02 67.8278 30.8111 69.1142 30.3933C70.47 29.9407 71.6868 29.2096 72.7645 28.2C73.6684 27.3645 74.4333 26.4244 74.9895 25.4148C75.5458 24.4052 75.963 23.2911 76.2063 22.0726C76.7974 19.0437 76.3454 16.6763 74.8505 14.9356ZM69.5313 21.4111C69.2184 23.0474 68.6274 24.2311 67.7583 24.8926C66.8891 25.5541 65.4638 25.9022 63.5864 25.9022H61.3266L62.9606 17.477H65.8809C68.0364 17.477 68.9056 17.9296 69.2532 18.3126C69.7399 18.8696 69.8442 19.9489 69.5313 21.4111Z" fill="white"/>
<path d="M26.0047 16.7807C27.9516 16.7807 29.2379 17.1289 29.8984 17.86C30.559 18.5911 30.698 19.8096 30.3504 21.5504C30.0027 23.3607 29.3074 24.6837 28.2992 25.4496C27.291 26.2156 25.7613 26.5985 23.7102 26.5985H20.616L22.5281 16.7807H26.0047ZM13.5586 36.5556H18.6691L19.8859 30.3237H24.2664C26.2133 30.3237 27.7777 30.1148 29.0293 29.697C30.2809 29.2793 31.3934 28.6178 32.4363 27.643C33.3055 26.8422 34.0008 25.9718 34.5223 25.0318C35.0438 24.0918 35.4262 23.0474 35.6348 21.8985C36.191 19.1133 35.7738 16.9548 34.418 15.3881C33.0621 13.8215 30.9066 13.0556 27.9516 13.0556H18.1129L13.5586 36.5556ZM39.3895 6.8237H44.4652L43.2484 13.0556H47.768C50.6187 13.0556 52.5656 13.543 53.6434 14.5526C54.7211 15.5622 55.034 17.1637 54.6168 19.3918L52.4961 30.3237H47.3508L49.3672 19.9141C49.6105 18.7304 49.5063 17.9296 49.1238 17.5118C48.7414 17.0941 47.8723 16.8504 46.5859 16.8504H42.5184L39.9109 30.3237H34.8352L39.3895 6.8237ZM65.8809 16.7807C67.8277 16.7807 69.1141 17.1289 69.7746 17.86C70.4352 18.5911 70.5742 19.8096 70.2266 21.5504C69.8789 23.3607 69.1836 24.6837 68.1754 25.4496C67.1672 26.2156 65.6375 26.5985 63.5863 26.5985H60.4922L62.4043 16.7807H65.8809ZM53.4348 36.5556H58.5453L59.7621 30.3237H64.1426C66.0895 30.3237 67.6539 30.1148 68.9055 29.697C70.157 29.2793 71.2695 28.6178 72.3125 27.643C73.1816 26.8422 73.877 25.9718 74.3984 25.0318C74.9199 24.0918 75.3023 23.0474 75.5109 21.8985C76.0672 19.1133 75.65 16.9548 74.2941 15.3881C72.9383 13.8215 70.7828 13.0556 67.8277 13.0556H57.9891L53.4348 36.5556Z" fill="#000004"/>
<defs>
<radialGradient id="paint0_radial_17_37" cx="0" cy="0" r="1" gradientUnits="userSpaceOnUse" gradientTransform="translate(26.7179 8.2398) scale(58.4394 58.5221)">
<stop stop-color="white"/>
<stop offset="0.5" stop-color="#4C6B97"/>
<stop offset="1" stop-color="#231F20"/>
</radialGradient>
</defs>
</svg>
