<svg width="57" height="57" viewBox="0 0 57 57" fill="none" xmlns="http://www.w3.org/2000/svg">
<path d="M51.3891 13.6711L29.8805 1.29139C29.5242 1.06874 29.0344 0.979675 28.5 0.979675C27.9656 0.979675 27.4758 1.11327 27.1195 1.29139L5.74453 13.7156C4.9875 14.1609 4.45312 15.2742 4.45312 16.1203V40.9242C4.45312 41.4141 4.54219 41.993 4.89844 42.4828L52.4578 14.8734C52.1906 14.3391 51.7898 13.9383 51.3891 13.6711Z" fill="#9B4F96"/>
<path d="M4.76489 42.4383C4.98755 42.7945 5.29927 43.1063 5.61099 43.2844L27.075 55.7086C27.4313 55.9313 27.9211 56.0203 28.4555 56.0203C28.9899 56.0203 29.4797 55.8867 29.836 55.7086L51.211 43.2844C51.968 42.8391 52.5024 41.7258 52.5024 40.8797V16.0758C52.5024 15.675 52.4579 15.2297 52.2352 14.8289L4.76489 42.4383Z" fill="#68217A"/>
<path d="M37.9852 33.8883C36.1148 37.1836 32.5523 39.4102 28.5 39.4102C22.4883 39.4102 17.5898 34.5117 17.5898 28.5C17.5898 22.4883 22.4883 17.5898 28.5 17.5898C32.5523 17.5898 36.1148 19.8164 37.9852 23.1562L43.7742 19.8164C40.7461 14.5172 35.0461 10.9102 28.5 10.9102C18.7922 10.9102 10.9102 18.7922 10.9102 28.5C10.9102 38.2078 18.7922 46.0898 28.5 46.0898C35.0016 46.0898 40.7016 42.5273 43.7297 37.2727L37.9852 33.8883ZM43.1953 29.4797L43.5961 27.5648H41.7258V25.4719H43.9969L44.5312 22.7109H46.7133L46.1789 25.4273H47.8711L48.4055 22.7109H50.543L50.0086 25.4273H51.0773V27.5203H49.6078L49.207 29.4352H51.0773V31.5281H48.8062L48.2719 34.2H46.0898L46.6242 31.5281H44.932L44.3977 34.2H42.2602L42.7945 31.5281H41.7258V29.4352H43.1953V29.4797ZM45.3328 29.4797H47.025L47.4258 27.5648H45.7336L45.3328 29.4797Z" fill="white"/>
</svg>
