<svg width="52" height="59" viewBox="0 0 52 59" fill="none" xmlns="http://www.w3.org/2000/svg">
<path d="M49.7463 13.0542L28.2503 0.54068C27.012 -0.180227 24.9855 -0.180227 23.7472 0.54068L2.25154 13.0542C1.01314 13.7751 0 15.5447 0 16.9865V42.0135C0.0963429 43.6927 0.946972 45.0834 2.25143 45.9458L23.7474 58.4592C24.9856 59.1802 27.0121 59.1802 28.2504 58.4592L49.7463 45.9458C51.1461 45.0071 51.9429 43.5941 51.9978 42.0135V16.9865C51.9475 15.4694 51.0466 13.9393 49.7464 13.0542M8.66629 29.5001C8.56446 12.4351 31.2331 4.89988 41.0087 20.7564L33.5077 25.133C28.9794 17.5813 17.7361 20.2816 17.3326 29.5001C17.4537 37.9962 28.5045 41.9429 33.5081 33.8666L41.0093 38.2432C32.3941 53.323 9.10057 47.8975 8.66629 29.5001ZM43.3315 30.4708H41.4056V32.4128H39.48V30.4708H37.5541V28.5292H39.48V26.5875H41.4057V28.5292H43.3315V30.4708ZM50.5535 30.4708H48.6274V32.4128H46.7017V30.4708H44.776V28.5292H46.7019V26.5875H48.6275V28.5292H50.5535V30.4708Z" fill="#699BF7"/>
</svg>
