<svg width="228" height="228" viewBox="0 0 228 228" fill="none" xmlns="http://www.w3.org/2000/svg">
<g clip-path="url(#clip0_107_120)">
<path d="M105.822 135.128C99.0166 148.431 94.9776 166.02 95.2922 181.422C95.4132 187.725 95.9522 197.073 101.264 201.239C106.802 205.593 113.154 204.779 117.387 199.308C121.134 194.464 122.055 186.621 122.255 180.483C122.813 162.741 125.965 148.51 139.257 136.758C139.789 136.291 143.108 129.112 142.554 127.943C133.749 109.259 113.01 121.042 105.822 135.121" fill="#625EFB"/>
<path d="M168.983 167.64C180.987 172.602 196.216 174.633 209.051 172.876C214.306 172.156 222.053 170.797 224.865 165.522C227.78 160.035 226.307 154.32 221.2 150.968C216.67 148.011 209.99 147.904 204.824 148.309C189.917 149.485 177.644 147.964 166.102 136.918C165.652 136.474 159.239 134.117 158.314 134.749C143.811 144.558 156.32 162.406 168.983 167.64ZM57.3811 174.505C45.335 179.359 30.0922 181.258 17.273 179.389C12.0203 178.624 4.30319 177.197 1.52681 171.897C-1.34054 166.385 0.17947 160.683 5.31563 157.376C9.87394 154.458 16.5512 154.41 21.7134 154.86C36.6099 156.169 48.8956 154.752 60.5299 143.806C60.9843 143.37 67.4345 141.065 68.3401 141.705C82.7396 151.641 70.0929 169.379 57.3811 174.505ZM114.362 165.889C115.782 180.765 121.844 197.769 130.402 210.591C133.893 215.831 139.356 223.426 146.094 224.077C153.118 224.762 158.01 220.661 158.648 213.772C159.191 207.67 155.751 200.568 152.61 195.284C143.529 180.02 138.527 166.355 143.423 149.293C143.609 148.611 142.551 140.777 141.451 140.09C123.989 129.082 112.847 150.178 114.362 165.903M109.22 165.866C107.67 180.73 101.464 197.68 92.7906 210.427C89.2544 215.636 83.7074 223.183 76.9819 223.776C69.9522 224.399 65.0783 220.257 64.518 213.362C64.0286 207.255 67.5269 200.183 70.7169 194.927C79.9308 179.743 85.0518 166.122 80.3085 149.018C80.1135 148.335 81.254 140.51 82.3633 139.833C99.9108 128.977 110.879 150.169 109.219 165.88" fill="#7F8FF1"/>
<path d="M89.5243 139.087C87.9679 153.95 81.7614 170.9 73.0954 183.644C69.5592 188.856 64.0051 196.403 57.2796 196.996C50.2641 197.616 45.3901 193.477 44.8298 186.582C44.3263 180.475 47.8317 173.404 51.0146 168.144C60.2355 152.963 65.3495 139.342 60.6027 122.235C60.4254 121.552 61.5482 113.727 62.6645 113.05C80.2262 102.197 91.1798 123.386 89.5242 139.097M124.751 134.21C126.171 149.09 132.229 166.09 140.791 178.913C144.282 184.156 149.763 191.751 156.483 192.399C163.507 193.083 168.417 188.987 169.037 182.093C169.58 175.991 166.143 168.893 163.002 163.605C153.921 148.345 148.919 134.68 153.811 117.614C154.012 116.933 152.94 109.099 151.84 108.412C134.374 97.4032 123.236 118.499 124.751 134.221" fill="#625EFB"/>
<path d="M13.8339 105.283C14.0597 53.4585 56.2515 11.6468 108.076 11.8725C159.901 12.0983 201.712 54.276 201.487 106.101C201.261 157.925 159.244 162.896 107.419 162.67C55.5946 162.444 13.6081 157.111 13.8339 105.283Z" fill="#7F8FF1"/>
<path d="M64.5145 213.348C64.7163 215.71 65.4358 217.696 66.5492 219.337C67.4367 213.587 70.8425 207.469 73.7219 203.724C84.2439 190.094 88.615 174.179 88.9911 157.627C68.3813 156.597 50.1543 151.414 41.7198 137.808C22.6358 107.026 37.888 61.569 63.0085 38.1516C80.0229 22.2949 99.1328 12.2301 119.565 8.66774C116.039 8.26003 112.498 7.98658 108.858 7.97071C57.0331 7.74494 14.8412 49.5567 14.6154 101.381C14.4892 130.354 27.5578 144.766 48.1515 151.911C40.0812 155.315 31.4443 155.687 21.6817 154.825C16.5195 154.378 9.83876 154.423 5.28399 157.341C0.151358 160.648 -1.3722 166.353 1.49517 171.862C4.27156 177.159 11.9921 178.588 17.2414 179.354C30.0606 181.226 45.3033 179.324 57.3495 174.47C64.5871 171.547 71.7966 164.537 74.0059 157.202C76.5638 157.485 79.1536 157.726 81.818 157.9C82.9414 171.036 78.2435 182.465 70.6923 194.895C67.5093 200.162 64.011 207.237 64.4969 213.34M160.239 150.458C152.177 152.06 142.516 153.757 132.295 155.151C131.697 167.445 136.355 206.538 158.028 216.675C158.331 215.736 158.533 214.768 158.631 213.786C159.173 207.684 155.733 200.582 152.593 195.298C145.031 182.604 140.401 170.969 141.852 157.603C146.276 157.189 150.68 156.587 155.052 155.798C158.331 160.962 163.627 165.436 168.976 167.64C180.98 172.602 196.209 174.633 209.044 172.876C214.299 172.157 222.046 170.798 224.858 165.522C225.831 163.663 226.143 161.816 226.169 160.014C188.975 173.453 168.036 157.809 160.239 150.458Z" fill="#625EFB"/>
<path d="M92.4783 83.3222C92.3885 103.936 81.1711 120.592 67.3967 120.532C53.6294 120.472 42.5504 103.719 42.6402 83.1051C42.7301 62.4806 53.9651 45.8388 67.7218 45.8987C81.4892 45.9587 92.5682 62.6977 92.4783 83.3222ZM176.804 83.6896C176.714 104.303 165.496 120.96 151.722 120.899C137.955 120.84 126.876 104.086 126.966 83.4725C127.055 62.848 138.29 46.2062 152.047 46.2661C165.814 46.3261 176.893 63.0651 176.804 83.6896Z" fill="white"/>
<path d="M67.4815 102.75C76.3892 102.789 83.6484 94.0739 83.6954 83.2844C83.7424 72.4948 76.5594 63.7167 67.6518 63.6779C58.7441 63.6391 51.4849 72.3543 51.4379 83.1439C51.3909 93.9334 58.5739 102.712 67.4815 102.75Z" fill="#2F2D97"/>
<path d="M167.989 83.6516C167.942 94.4501 160.697 103.156 151.789 103.118C142.882 103.079 135.698 94.3096 135.746 83.5111C135.793 72.7127 143.056 63.9923 151.959 64.0311C160.863 64.0699 168.036 72.8532 167.989 83.6516Z" fill="#2F2D97"/>
<path d="M72.3316 74.1786C72.3063 79.9789 70.1791 84.6814 67.56 84.67C64.955 84.6586 62.8583 79.9378 62.8835 74.1375C62.9088 68.3372 65.05 63.6524 67.6515 63.6638C70.2707 63.6752 72.3568 68.3783 72.3316 74.1786ZM156.646 74.5459C156.621 80.3462 154.494 85.0487 151.875 85.0373C149.27 85.0259 147.169 80.3051 147.195 74.5048C147.22 68.7045 149.361 64.0197 151.966 64.0311C154.585 64.0425 156.672 68.7456 156.646 74.5459Z" fill="white"/>
</g>
<defs>
<clipPath id="clip0_107_120">
<rect width="226.217" height="226.217" fill="white" transform="translate(0.985535) rotate(0.249611)"/>
</clipPath>
</defs>
</svg>
