<svg width="191" height="230" viewBox="0 0 191 230" fill="none" xmlns="http://www.w3.org/2000/svg">
<path d="M66.0154 0.301559C67.6494 0.535413 69.3977 1.01524 71.4281 1.57245L145.943 22.0223C147.974 22.5795 149.722 23.0593 151.246 23.6922C156.653 25.9564 161.138 30.0379 163.992 35.2905C166.845 40.5431 167.904 46.6665 167.001 52.6909L166.945 53.0289L176.036 55.524C178.434 56.1568 183.692 57.5493 187.196 61.7545C191.736 67.1782 191.595 74.3211 189.665 81.3518C180.884 113.348 158.632 130.212 134.451 136.336C116.708 155.246 90.9239 164.691 68.4205 158.515C51.2863 153.813 37.6798 139.704 29.6451 123.148C26.9693 117.669 24.8861 111.892 23.4327 105.919C5.76031 88.3719 -5.26953 62.3991 3.54692 30.2737C5.47965 23.2312 9.00128 17.0287 15.6623 14.6791C20.8329 12.8544 26.0652 14.3408 28.4501 15.0205L37.5417 17.5156L37.6657 17.1963C39.964 11.5546 44.0002 6.82956 49.1352 3.76939C54.2703 0.709214 60.2106 -0.511151 66.0154 0.301559ZM173.332 73.777C172.475 73.4832 171.608 73.224 170.731 73.0001L162.237 70.6691L151.278 109.186C160.949 102.147 168.654 91.6149 172.745 76.7084C173.125 75.3233 173.275 74.38 173.332 73.777ZM20.4668 34.9172C16.4821 49.4364 17.6923 62.1754 22.2538 73.0448C23.9124 64.0844 26.5571 55.2431 29.1889 46.4488C30.3465 42.6435 31.4562 38.8503 32.5181 35.0692L24.092 32.7567C22.8625 32.4193 22.0842 32.2057 21.4703 32.1003C21.0512 33.0062 20.7152 33.9493 20.4668 34.9172ZM100.634 51.3016C100.562 50.7128 100.325 50.1622 99.9507 49.7184C99.5764 49.2746 99.0821 48.957 98.5292 48.8053C97.9763 48.6535 97.3891 48.6743 96.8408 48.8649C96.2924 49.0556 95.8071 49.4077 95.4451 49.8776L85.8447 62.5401C85.5097 62.982 85.0656 63.3226 84.5609 63.5247C84.0562 63.7267 83.5104 63.7825 82.9831 63.6858L67.8794 60.8661C67.3115 60.7594 66.7223 60.8299 66.1862 61.0687C65.6502 61.3075 65.1912 61.7038 64.8674 62.2077C64.5436 62.7115 64.3693 63.3004 64.3666 63.8999C64.3639 64.4994 64.5329 65.0827 64.8523 65.5761L73.3475 78.6862C73.644 79.1461 73.8105 79.6842 73.8287 80.2414C73.847 80.7987 73.7163 81.3535 73.451 81.8448L65.9116 95.8807C65.6243 96.4096 65.4937 97.0118 65.5363 97.6107C65.579 98.2097 65.793 98.7784 66.1512 99.2446C66.5094 99.7108 66.9957 100.053 67.5481 100.229C68.1006 100.405 68.6944 100.405 69.2541 100.231L84.0909 95.6697C84.6096 95.5111 85.1575 95.5023 85.6748 95.6442C86.192 95.7862 86.6587 96.0735 87.0237 96.4746L97.4539 107.97C97.8462 108.406 98.3571 108.708 98.9219 108.839C99.4866 108.97 100.08 108.924 100.626 108.706C101.172 108.488 101.646 108.108 101.988 107.615C102.331 107.121 102.526 106.537 102.549 105.935L103.219 90.0142C103.241 89.4563 103.412 88.9125 103.712 88.4426C104.012 87.9728 104.43 87.595 104.92 87.351L118.928 80.4166C119.458 80.1573 119.905 79.7421 120.212 79.224C120.518 78.7058 120.671 78.1081 120.65 77.5069C120.629 76.9057 120.435 76.3282 120.094 75.8479C119.752 75.3675 119.278 75.0061 118.732 74.8095L104.313 69.5397C103.808 69.3552 103.364 69.0289 103.031 68.5968C102.699 68.1648 102.489 67.6436 102.426 67.0907L100.634 51.3016ZM66.8099 164.384C69.0536 165 70.9509 166.518 72.0843 168.604C73.2178 170.69 73.4946 173.174 72.8539 175.509L65.6062 201.918L102.266 211.979C104.51 212.595 106.407 214.113 107.54 216.199C108.674 218.285 108.951 220.769 108.31 223.104C107.669 225.438 106.163 227.433 104.124 228.648C102.084 229.864 99.6777 230.201 97.434 229.585L7.19483 204.82C4.95112 204.204 3.05383 202.686 1.92036 200.6C0.786885 198.514 0.510073 196.03 1.15081 193.695C1.79155 191.36 3.29736 189.366 5.33697 188.15C7.37659 186.935 9.78293 186.598 12.0266 187.214L48.6863 197.275L55.934 170.865C56.5748 168.531 58.0806 166.536 60.1202 165.321C62.1598 164.105 64.5662 163.768 66.8099 164.384Z" fill="#625EFB"/>
</svg>
